<svg xmlns="http://www.w3.org/2000/svg" viewBox="0 0 723 186"><defs><style>.cls-1{fill:#333;}.cls-2{fill:#3eb549;}.cls-3{fill:#fff;}.cls-4{fill:none;stroke:#3eb549;stroke-miterlimit:10;stroke-width:6px;}</style></defs><title>SCSLogo</title><g id="Layer_1" data-name="Layer 1"><path class="cls-1" d="M186.94,121.76a14.34,14.34,0,0,1-5.56,11.31,23.69,23.69,0,0,1-11.85,5.29l-.42,0q-.75,0-3.32-4.56t-2.56-5.57c0-.24.16-.39.49-.45A34.56,34.56,0,0,0,170,126a5.38,5.38,0,0,0,3.38-5q0-2.11-2.21-4.71c-2.55-3-3.94-4.58-4.16-4.91a13.25,13.25,0,0,1-2.24-7.47q0-5.94,5.49-9.87a24.5,24.5,0,0,1,11-4.22,4.52,4.52,0,0,1,.55,0q.49,0,.78.78.85,2.37,3.93,8.58a.72.72,0,0,1,.1.32c0,.37-.19.55-.58.55a6.91,6.91,0,0,1-.88-.09,6,6,0,0,0-.94-.1,7.7,7.7,0,0,0-4.09,1.07,3.82,3.82,0,0,0-2.12,3.44q0,2,2.34,4.88l4.32,5.45A13,13,0,0,1,186.94,121.76Z"/><path class="cls-1" d="M224.74,120.47q0,2.49.3,7.43c.19,3.3.29,5.76.29,7.41,0,.86-.38,1.33-1.14,1.4-2.68.19-5.76.29-9.22.29-.41,0-.69-.62-.83-1.87s-.31-1.88-.5-1.9a3.16,3.16,0,0,0-.69.55q-3.63,3.67-7.79,3.67a13.05,13.05,0,0,1-10.49-5,16.8,16.8,0,0,1-3.93-11.17q0-7.5,4.06-12.08,4.22-4.76,11.56-4.75a9.89,9.89,0,0,1,8.06,3.58c.08.1.16.16.22.16s.42-.53.67-1.58.55-1.57.89-1.57a29,29,0,0,1,4.58.68,46.76,46.76,0,0,1,4.61,1.1c.33.13.49.31.49.52a5,5,0,0,1-.1.69A71.65,71.65,0,0,0,224.74,120.47Zm-10.45.19a6.29,6.29,0,0,0-1.74-4.56,6.59,6.59,0,0,0-9.05,0,6.72,6.72,0,0,0,.1,9.09,5.91,5.91,0,0,0,4.42,1.89,6,6,0,0,0,4.51-1.8A6.35,6.35,0,0,0,214.29,120.66Z"/><path class="cls-1" d="M283.11,135.5c0,.76-.33,1.18-1,1.27s-2.25.13-4.8.13a37.77,37.77,0,0,1-4.94-.19c-.65-.13-1-.67-1-1.6s0-2.48.09-4.46.1-3.47.1-4.47c0-3.79,0-6.48-.13-8.09q-.19-3.86-3.67-3.86a4.73,4.73,0,0,0-3,1.28,4.36,4.36,0,0,0-1.67,2.84c-.09.91-.13,3.58-.13,8,0,1,0,2.57.1,4.63s.1,3.62.1,4.66c0,.72-.32,1.08-.95,1.08h-9.84c-.6,0-.91-.45-.91-1.34s0-2.54.1-4.58.1-3.57.1-4.61c0-.8,0-2-.07-3.64s-.06-2.84-.06-3.67q0-4.64-3.54-4.64a5.73,5.73,0,0,0-3.09,1.1c-1.21.8-1.82,1.65-1.82,2.54,0,2,0,4.91,0,8.83s0,6.85,0,8.8a1.62,1.62,0,0,1-.2,1,1.77,1.77,0,0,1-1,.26c-1,.09-2.51.13-4.61.13-1.37,0-2.92-.07-4.65-.19-.52-.05-.83-.12-.92-.23a1.84,1.84,0,0,1-.15-1q0-2.59,0-7.78t0-7.77a106.07,106.07,0,0,0-.77-12,3.25,3.25,0,0,1-.07-.58.74.74,0,0,1,.45-.75,11,11,0,0,1,2.7-.49c1.62-.15,2.59-.25,2.89-.29s1.07-.27,2.57-.68a10,10,0,0,1,2.56-.46c.41,0,.63.76.65,2.26s.11,2.26.26,2.26a3.23,3.23,0,0,0,.75-.46,31.08,31.08,0,0,1,4.61-3.11,12.26,12.26,0,0,1,5.42-1.21,10.55,10.55,0,0,1,5.33,1.34,6.89,6.89,0,0,1,3.41,4.18,13.91,13.91,0,0,1,4.74-3.93,12.63,12.63,0,0,1,5.88-1.59,11.53,11.53,0,0,1,7,2,7.48,7.48,0,0,1,3.05,6.4c0,1.15,0,2.88-.1,5.18s-.1,4-.1,5.18c0,1.37,0,3.42.1,6.16S283.11,134.14,283.11,135.5Z"/><path class="cls-1" d="M319,119.07c0,2.19-.7,3.43-2.11,3.73q-.36.08-6.72.72-3.84.42-11.44,1a4.65,4.65,0,0,0,2.76,3.21,9.72,9.72,0,0,0,4.29.91,12.28,12.28,0,0,0,5.82-1.56l2.46-1.56c.46.22,1.22,1.32,2.29,3.31a12,12,0,0,1,1.61,3.81c0,.15-.16.4-.49.74q-4,4.26-12.31,4.26-7.72,0-12.47-4.52t-4.87-12.24a17.5,17.5,0,0,1,4.35-12.25,15.28,15.28,0,0,1,11.89-4.93,14.1,14.1,0,0,1,10.59,4.54A15.13,15.13,0,0,1,319,119.07Zm-11.37-2a5,5,0,0,0-1.43-3.54,4.51,4.51,0,0,0-3.41-1.53,4.07,4.07,0,0,0-3.37,1.72,5.89,5.89,0,0,0-1.24,3.74c0,.58.3.87.91.87a56.45,56.45,0,0,0,7.47-.74C307.31,117.5,307.66,117.33,307.66,117.09Z"/><path class="cls-1" d="M377.39,129.36a2.42,2.42,0,0,1-.68,1.37q-6,7.11-15.88,7.11-10.12,0-16.43-6.92-6.15-6.69-6.14-16.89a24.56,24.56,0,0,1,6-16.75,20.19,20.19,0,0,1,15.94-7.22q10.53,0,16.5,6.47a2,2,0,0,1,.65,1.26c0,.42-.75,1.94-2.25,4.59a26,26,0,0,1-2.85,4.44.85.85,0,0,1-.65.26,8.47,8.47,0,0,1-1.62-1.29,17.14,17.14,0,0,0-3.44-2.44,11.62,11.62,0,0,0-5.33-1.3,9.27,9.27,0,0,0-7.63,3.57,12.73,12.73,0,0,0-2.63,8.19,12.94,12.94,0,0,0,2.63,8.28,9.22,9.22,0,0,0,7.63,3.64,12,12,0,0,0,5.36-1.24,16.81,16.81,0,0,0,3.38-2.27,8.15,8.15,0,0,1,1.59-1.23.91.91,0,0,1,.65.35c.34.39,1.29,1.75,2.82,4.06A24.41,24.41,0,0,1,377.39,129.36Z"/><path class="cls-1" d="M392.69,121.8q0,2.37.1,7.06c.06,3.13.1,5.47.1,7,0,.46-.27.73-.81.82a40.19,40.19,0,0,1-5,.19,40.66,40.66,0,0,1-5-.19c-.47-.09-.77-.23-.87-.43a3.25,3.25,0,0,1-.07-1c0-1.5,0-3.74.1-6.74s.1-5.26.1-6.77a117.62,117.62,0,0,0-.72-14.68q-.06-.53-.06-.69c0-.43.29-.64.87-.64s1.54.06,2.78.19,2.18.19,2.81.19,1.57,0,2.83-.16,2.19-.16,2.82-.16.78.22.78.65c0,.09,0,.29-.06.62A131.49,131.49,0,0,0,392.69,121.8Zm.85-24.13q0,5.64-6.37,5.65a7,7,0,0,1-4.51-1.43,5.42,5.42,0,0,1,.06-8.38,6.86,6.86,0,0,1,4.45-1.5,6.69,6.69,0,0,1,4.39,1.53A5.11,5.11,0,0,1,393.54,97.67Z"/><path class="cls-1" d="M420.69,127.19a25.15,25.15,0,0,1-.25,2.95,27,27,0,0,0-.24,2.91,2.33,2.33,0,0,1-.19,1.19,3.93,3.93,0,0,1-1.08.74,18.87,18.87,0,0,1-9.28,2.31q-9.39,0-9.39-7.18,0-2.15.16-6.44t.16-6.45c0-1-.55-1.43-1.65-1.43h-.42l-.43,0c-.82,0-1.23-.29-1.23-.88,0-.34,0-.87.08-1.59s.08-1.24.08-1.59,0-1.15-.08-2.08-.08-1.62-.08-2.08.69-.67,2.08-.71c.78,0,1.2-.24,1.27-.65a24.34,24.34,0,0,0,.13-3.9c-.09-2.79-.13-4.12-.13-4,0-2.51.23-3.77.71-3.77a11.61,11.61,0,0,1,2.5.39,25.38,25.38,0,0,0,2.57.49c1.1.15,2.77.35,5,.61.54.05.81.23.81.56q0,1.29-.21,3.93t-.21,4c0,1.06.31,1.59.94,1.59s1.9,0,3.44-.1,2.7-.09,3.48-.09c.47,0,.71.16.71.48a21.87,21.87,0,0,1-.16,2.24,22.24,22.24,0,0,0-.16,2.24q0,.78,0,2.28c0,1,0,1.75,0,2.27s-.31.68-.94.68c-.43,0-1.16,0-2.18,0s-1.74,0-2.17,0H412c-.32,0-.49.47-.49,1.43v2.3c0,1,0,1.81,0,2.31a8,8,0,0,0,.61,3.76c.59.94,1.74,1.4,3.45,1.4a10.4,10.4,0,0,0,2.32-.37,10.47,10.47,0,0,1,2.13-.38C420.46,126.47,420.69,126.71,420.69,127.19Z"/><path class="cls-1" d="M456,113.55a41.32,41.32,0,0,1-.39,7.66q-.48,1.62-7.11,11.76-1,1.59-5.36,7.37-4.77,6.38-5.42,6.73c-.52.32-3.85.48-10,.48a3.86,3.86,0,0,1-1.89-.32c-.28-.89-.64-1.94-1.07-3.15-.35-.76-.69-1.53-1-2.31a7.21,7.21,0,0,1-.74-2.24c0-.41.18-.62.55-.62q9,0,9-4.12c0-.24-1.48-2.39-4.42-6.46s-4.73-6.83-5-7.93a43.26,43.26,0,0,1-.26-6.72c0-.78,0-2,.06-3.53s.07-2.74.07-3.52c0-.56.35-.84,1.07-.84q1.65,0,5,.09c2.25.07,3.92.1,5,.1.46,0,.69.34.69,1s0,1.52-.1,2.74-.1,2.14-.1,2.75c0,2.72,0,4.57.13,5.55a13,13,0,0,0,1.95,4.22q1.95,3.23,2.82,3.22c.5,0,1.35-1.06,2.54-3.19a15,15,0,0,0,1.78-4.06,54.13,54.13,0,0,0,.33-6.2c0-.58-.06-1.47-.16-2.66s-.17-2.09-.17-2.7c0-.41.23-.62.69-.62q1.65,0,4.95-.12c2.2-.09,3.85-.13,4.95-.13a1.13,1.13,0,0,1,1.14.84A31.56,31.56,0,0,1,456,113.55Z"/><path class="cls-1" d="M498.9,121.76a14.34,14.34,0,0,1-5.56,11.31,23.73,23.73,0,0,1-11.85,5.29l-.42,0q-.75,0-3.32-4.56t-2.56-5.57c0-.24.16-.39.49-.45a34.56,34.56,0,0,0,6.23-1.82,5.38,5.38,0,0,0,3.38-5q0-2.11-2.21-4.71c-2.55-3-3.94-4.58-4.16-4.91a13.25,13.25,0,0,1-2.24-7.47q0-5.94,5.49-9.87a24.5,24.5,0,0,1,11-4.22,4.52,4.52,0,0,1,.55,0q.5,0,.78.78.86,2.37,3.93,8.58a.72.72,0,0,1,.1.32c0,.37-.19.55-.58.55a6.91,6.91,0,0,1-.88-.09,6,6,0,0,0-.94-.1,7.76,7.76,0,0,0-4.1,1.07,3.82,3.82,0,0,0-2.11,3.44q0,2,2.34,4.88l4.32,5.45A13,13,0,0,1,498.9,121.76Z"/><path class="cls-1" d="M536.48,113.16l-.07,22.41c0,.76-.3,1.18-.91,1.26s-2.27.13-4.74.13a32.47,32.47,0,0,1-5-.25,1.25,1.25,0,0,1-1.07-1.4c0-1.86,0-4.67.1-8.41s.09-6.55.09-8.42c0-2.53-1.28-3.8-3.86-3.8a6.24,6.24,0,0,0-3,1q-1.92,1.14-1.92,2.37v8c0,1,0,2.6.06,4.69s.07,3.65.07,4.69c0,.8-.34,1.25-1,1.33s-2.55.13-5.65.13a20.26,20.26,0,0,1-3.83-.25q-1.17-.27-1.17-1.14,0-2.56,0-7.72t0-7.71q0-10.62-.22-17.57c-.07-1.62-.12-3.25-.17-4.87a32.28,32.28,0,0,0-.58-4.84,3.59,3.59,0,0,1-.1-.62.65.65,0,0,1,.49-.65,13.5,13.5,0,0,1,3-.36c1.73-.06,2.73-.11,3-.16l5.87-.68c.35,0,.52.23.52.68,0,.7,0,1.64-.13,2.83-.08,1.38-.13,2.33-.13,2.82-.13,4.9-.19,8.76-.19,11.6,0,.43.11.65.32.65a19.25,19.25,0,0,0,1.66-1.14,22.08,22.08,0,0,1,3.61-2.11,12.18,12.18,0,0,1,5-1.14,11,11,0,0,1,7,2.18A7.66,7.66,0,0,1,536.48,113.16Z"/><path class="cls-1" d="M573,120.73a16.41,16.41,0,0,1-4.54,12q-4.53,4.62-11.9,4.61a16.07,16.07,0,0,1-11.76-4.54,15.72,15.72,0,0,1-4.61-11.69q0-7.55,4.42-12.23t12-4.7a16,16,0,0,1,11.89,4.6A16.24,16.24,0,0,1,573,120.73Zm-10.66,0a7,7,0,0,0-1.59-4.54,5.06,5.06,0,0,0-4.12-2,5.26,5.26,0,0,0-4.23,2,7.27,7.27,0,0,0,0,9,5.41,5.41,0,0,0,8.42,0A7,7,0,0,0,562.36,120.73Z"/><path class="cls-1" d="M612.77,121.08a16.63,16.63,0,0,1-4.09,11.53,14.14,14.14,0,0,1-11.08,4.74,13.62,13.62,0,0,1-5.36-1.23,12.78,12.78,0,0,1-2.6-1.23c-.28,0-.42.32-.42,1,0,1.1.06,2.77.16,5s.17,3.88.17,5a.94.94,0,0,1-1.07,1l-6.63,0a15.38,15.38,0,0,1-2.89-.16,1.13,1.13,0,0,1-1-1.2l.07-25a60.64,60.64,0,0,0-1.14-12.76,3.15,3.15,0,0,1-.06-.56.64.64,0,0,1,.39-.65,27.31,27.31,0,0,1,4.84-1,36.22,36.22,0,0,1,5-.56c.85,0,1.33.56,1.45,1.68s.26,1.67.44,1.67c-.22,0,.7-.59,2.77-1.77a11.61,11.61,0,0,1,5.64-1.77,14.51,14.51,0,0,1,11.27,4.64Q612.78,113.91,612.77,121.08Zm-12-.06a7,7,0,0,0-1.59-4.55,5.38,5.38,0,0,0-4.26-2,5,5,0,0,0-4.15,2,7.47,7.47,0,0,0-1.37,4.55,7.22,7.22,0,0,0,1.43,4.58,5,5,0,0,0,4.22,2Q600.71,127.58,600.72,121Z"/><path class="cls-1" d="M652.82,121.08a16.64,16.64,0,0,1-4.1,11.53,14.1,14.1,0,0,1-11.07,4.74,13.58,13.58,0,0,1-5.36-1.23,12.36,12.36,0,0,1-2.6-1.23c-.28,0-.42.32-.42,1,0,1.1.05,2.77.16,5s.16,3.88.16,5a.93.93,0,0,1-1.07,1l-6.62,0a15.52,15.52,0,0,1-2.9-.16,1.13,1.13,0,0,1-1-1.2l.07-25A60.64,60.64,0,0,0,617,107.77a3.27,3.27,0,0,1-.07-.56.64.64,0,0,1,.39-.65,27.76,27.76,0,0,1,4.84-1,36.48,36.48,0,0,1,5-.56q1.26,0,1.44,1.68c.12,1.11.27,1.67.44,1.67-.22,0,.71-.59,2.78-1.77a11.57,11.57,0,0,1,5.63-1.77,14.5,14.5,0,0,1,11.27,4.64Q652.82,113.91,652.82,121.08ZM640.77,121a7,7,0,0,0-1.6-4.55,5.34,5.34,0,0,0-4.25-2,5,5,0,0,0-4.16,2A7.46,7.46,0,0,0,629.4,121a7.16,7.16,0,0,0,1.43,4.58,5,5,0,0,0,4.22,2Q640.77,127.58,640.77,121Z"/><path class="cls-1" d="M686.79,119.07c0,2.19-.71,3.43-2.11,3.73q-.36.08-6.73.72-3.83.42-11.43,1a4.65,4.65,0,0,0,2.76,3.21,9.72,9.72,0,0,0,4.29.91,12.24,12.24,0,0,0,5.81-1.56l2.47-1.56c.46.22,1.22,1.32,2.29,3.31a12.27,12.27,0,0,1,1.61,3.81c0,.15-.16.4-.49.74q-4,4.26-12.31,4.26-7.73,0-12.47-4.52t-4.87-12.24A17.5,17.5,0,0,1,660,108.64a15.28,15.28,0,0,1,11.89-4.93,14.1,14.1,0,0,1,10.59,4.54A15.13,15.13,0,0,1,686.79,119.07Zm-11.37-2a5,5,0,0,0-1.43-3.54,4.51,4.51,0,0,0-3.41-1.53,4.1,4.1,0,0,0-3.38,1.72,5.94,5.94,0,0,0-1.23,3.74c0,.58.3.87.91.87a56.45,56.45,0,0,0,7.47-.74C675.06,117.5,675.42,117.33,675.42,117.09Z"/><path class="cls-1" d="M711.89,116.47c0,.84-.46,1.27-1.39,1.27-.41,0-1,0-1.8-.08s-1.38-.08-1.77-.08c-1.8,0-3,.28-3.67.84s-1,1.7-1,3.41c0,.93,0,2.34.05,4.24s0,3.31,0,4.24c0,.62,0,1.56.13,2.81s.13,2.17.13,2.77-.36.82-1.07.88c-1,.09-2.63.13-4.78.13s-3.7-.07-4.93-.19q-1.08-.14-1.08-1.08,0-2.59,0-7.78t0-7.77a47.2,47.2,0,0,0-1.4-12.57,2.58,2.58,0,0,1-.06-.49.63.63,0,0,1,.48-.65c1.19-.13,2.94-.37,5.23-.71,3.42-.68,5.19-1,5.3-1,.39,0,.64.68.74,2s.31,2,.59,2c-.3,0,.58-.57,2.66-1.7a12.49,12.49,0,0,1,6-1.71c1.21,0,1.82.26,1.82.78a25.42,25.42,0,0,1-.2,2.66c-.13,1.24-.2,2.13-.22,2.67s0,1.46,0,2.5C711.87,115.21,711.89,116.06,711.89,116.47Z"/><path class="cls-2" d="M119.74,174h-99a9,9,0,0,1-9-9l10-99a9,9,0,0,1,9-9h79a9,9,0,0,1,9,9l10,99A9,9,0,0,1,119.74,174Z"/><path class="cls-3" d="M49.45,121.13a12.92,12.92,0,0,1-5,10.16,21.36,21.36,0,0,1-10.66,4.76l-.38,0q-.68,0-3-4.1t-2.31-5c0-.21.15-.35.44-.41a31.76,31.76,0,0,0,5.61-1.63,4.83,4.83,0,0,0,3-4.5,6.85,6.85,0,0,0-2-4.23c-2.3-2.65-3.54-4.12-3.74-4.41a11.94,11.94,0,0,1-2-6.72q0-5.34,4.93-8.87a22.12,22.12,0,0,1,9.9-3.8l.5,0c.29,0,.52.23.7.7A83.94,83.94,0,0,0,49,100.78a.67.67,0,0,1,.09.29c0,.33-.18.5-.53.5a5.8,5.8,0,0,1-.79-.09,5.73,5.73,0,0,0-.84-.09,6.85,6.85,0,0,0-3.68,1,3.42,3.42,0,0,0-1.9,3.09q0,1.78,2.1,4.38l3.89,4.91A11.73,11.73,0,0,1,49.45,121.13Z"/><path class="cls-3" d="M88.4,128a2.22,2.22,0,0,1-.61,1.23,17.73,17.73,0,0,1-14.28,6.39q-9.12,0-14.78-6.22-5.52-6-5.51-15.18a22.13,22.13,0,0,1,5.4-15.07A18.14,18.14,0,0,1,73,92.63q9.47,0,14.84,5.81a1.82,1.82,0,0,1,.58,1.14,18.53,18.53,0,0,1-2,4.12,23.77,23.77,0,0,1-2.55,4,.78.78,0,0,1-.59.23,7.82,7.82,0,0,1-1.46-1.17,15.3,15.3,0,0,0-3.09-2.18,10.49,10.49,0,0,0-4.79-1.17A8.34,8.34,0,0,0,67,106.62,11.44,11.44,0,0,0,64.63,114,11.63,11.63,0,0,0,67,121.42a8.28,8.28,0,0,0,6.86,3.27,10.88,10.88,0,0,0,4.82-1.11,14.39,14.39,0,0,0,3-2,7.87,7.87,0,0,1,1.43-1.11.84.84,0,0,1,.59.32q.47.52,2.54,3.65A21.47,21.47,0,0,1,88.4,128Z"/><path class="cls-3" d="M111.47,121.13a12.9,12.9,0,0,1-5,10.16,21.33,21.33,0,0,1-10.65,4.76l-.38,0q-.68,0-3-4.1t-2.31-5c0-.21.15-.35.44-.41a31.76,31.76,0,0,0,5.61-1.63,4.83,4.83,0,0,0,3-4.5,6.85,6.85,0,0,0-2-4.23q-3.45-4-3.74-4.41a12,12,0,0,1-2-6.72q0-5.34,4.94-8.87a22.07,22.07,0,0,1,9.9-3.8l.49,0c.3,0,.53.23.7.7q.77,2.13,3.54,7.71a.64.64,0,0,1,.08.29c0,.33-.17.5-.52.5a5.64,5.64,0,0,1-.79-.09,5.7,5.7,0,0,0-.85-.09,6.88,6.88,0,0,0-3.68,1,3.43,3.43,0,0,0-1.89,3.09q0,1.78,2.1,4.38c2.47,3.12,3.77,4.75,3.88,4.91A11.74,11.74,0,0,1,111.47,121.13Z"/><path class="cls-4" d="M103.74,62V42a33,33,0,0,0-33-33h0a33,33,0,0,0-33,33V62Z"/></g></svg>